<svg width="166" height="12" viewBox="0 0 166 12" fill="none" xmlns="http://www.w3.org/2000/svg">
<path d="M10.6372 11.7587V3.68614L7.32492 11.7587H5.4582L2.1459 3.75239V11.7587H0V0.243713H2.95505L6.41404 8.55759L9.79259 0.243713H12.847V11.7587H10.6372Z" fill="#040000"/>
<path d="M21.4117 5.91246C21.168 5.86278 20.9574 5.84622 20.761 5.84622C19.6562 5.84622 18.698 6.38328 18.698 8.10331V11.7587H16.5379V3.76656H18.6341V4.95189C19.1215 3.89669 20.2263 3.70032 20.9077 3.70032C21.0875 3.70032 21.2484 3.71688 21.4117 3.73344V5.91246Z" fill="#040000"/>
<path d="M24.9085 8.91486C25.7366 8.91486 26.4014 9.57968 26.4014 10.3936C26.4014 11.2051 25.7366 11.8723 24.9085 11.8723C24.097 11.8723 23.4298 11.2051 23.4298 10.3936C23.4298 9.58205 24.097 8.91486 24.9085 8.91486Z" fill="#040000"/>
<path d="M55.7129 11.7587V6.98188H50.6948V11.7587H48.4543V0.243713H50.6948V4.87147H55.7129V0.243713H57.97V11.7587H55.7129Z" fill="#040000"/>
<path d="M63.6672 11.7587V0.243713H70.8786V2.35412H65.9101V4.98504H70.4077V6.98188H65.9101V9.64592H70.8786V11.7563H63.6672V11.7587Z" fill="#040000"/>
<path d="M76.4882 11.7587V0.243713H83.6995V2.35412H78.7311V4.98504H83.2287V6.98188H78.7311V9.64592H83.6995V11.7563H76.4882V11.7587Z" fill="#040000"/>
<path d="M95.3399 3.60568C95.2263 2.97161 94.7058 1.98265 93.2437 1.98265C92.1554 1.98265 91.4409 2.6806 91.4409 3.44479C91.4409 4.07886 91.8478 4.58281 92.6924 4.74369L94.2989 5.05126C96.3951 5.4582 97.5142 6.82098 97.5142 8.44637C97.5142 10.2161 96.0355 12.0024 93.3573 12.0024C90.3028 12.0024 88.9566 10.0386 88.7768 8.39669L90.8565 7.84542C90.9535 8.98344 91.7508 10.0055 93.3738 10.0055C94.5757 10.0055 95.2405 9.40457 95.2405 8.59306C95.2405 7.92587 94.7366 7.40773 93.8446 7.22792L92.2382 6.90378C90.4022 6.52997 89.2169 5.34464 89.2169 3.60804C89.2192 1.55915 91.0528 0 93.2295 0C96.0237 0 97.0954 1.68927 97.3557 2.98817L95.3399 3.60568Z" fill="#040000"/>
<path d="M102.61 11.7587V0.243713H109.822V2.35412H104.851V4.98504H109.349V6.98188H104.851V9.64592H109.822V11.7563H102.61V11.7587Z" fill="#040000"/>
<path d="M41.6262 7.72713C41.2879 9.00473 39.9961 9.86356 38.4133 9.86356C36.3265 9.86356 34.8715 8.26893 34.8715 5.98344C34.8715 3.71688 36.3289 2.13644 38.4133 2.13644C40.0008 2.13644 41.2855 2.9929 41.6096 4.2705L41.6664 4.4929L43.8005 3.83517L43.7508 3.63644C43.1901 1.42666 41.0939 0 38.4133 0C35.0394 0 32.5883 2.51735 32.5883 5.98344C32.5883 9.47082 35.0371 12 38.4133 12C41.0939 12 43.1877 10.5733 43.7484 8.36593L43.7981 8.16719L41.683 7.50946L41.6262 7.72713Z" fill="#040000"/>
<path d="M136.831 9.1254H132.154L131.196 11.7563H128.825L133.242 0.241333H135.84L140.224 11.7563H137.789L136.831 9.1254ZM132.901 7.08124H136.084L134.494 2.72793L132.901 7.08124Z" fill="#040000"/>
<path d="M158.404 11.7587V0.243713H165.615V2.35412H160.644V4.98504H165.142V6.98188H160.644V9.64592H165.615V11.7563H158.404V11.7587Z" fill="#040000"/>
<path d="M144.497 0.243713H146.815V5.1956L151.207 0.243713H153.97L149.64 5.17668L154.15 11.7587H151.254L148.022 7.01737L146.811 8.39671V11.7587H144.492V0.243713H144.497Z" fill="#040000"/>
<path d="M123.435 7.72713C123.097 9.00473 121.805 9.86356 120.222 9.86356C118.136 9.86356 116.681 8.26893 116.681 5.98344C116.681 3.71688 118.138 2.13644 120.222 2.13644C121.81 2.13644 123.095 2.9929 123.419 4.2705L123.476 4.4929L125.61 3.83517L125.56 3.63644C124.999 1.42666 122.905 0 120.225 0C116.851 0 114.4 2.51735 114.4 5.98344C114.4 9.47082 116.849 12 120.225 12C122.905 12 124.999 10.5733 125.56 8.36593L125.61 8.16719L123.495 7.50946L123.435 7.72713Z" fill="#040000"/>
</svg>
